<?xml version="1.0" standalone="no"?>
<!DOCTYPE svg PUBLIC "-//W3C//DTD SVG 20010904//EN"
 "http://www.w3.org/TR/2001/REC-SVG-20010904/DTD/svg10.dtd">
<svg version="1.0" xmlns="http://www.w3.org/2000/svg"
 width="590.000000pt" height="590.000000pt" viewBox="0 0 590.000000 590.000000"
 preserveAspectRatio="xMidYMid meet">
<metadata>
Created by potrace 1.14, written by Peter Selinger 2001-2017
</metadata>
<g transform="translate(0.000000,590.000000) scale(0.100000,-0.100000)"
fill="#000000" stroke="none">
<path d="M2460 5489 c-146 -15 -375 -64 -522 -113 -366 -120 -677 -308 -952
-576 -404 -394 -646 -864 -733 -1430 -25 -162 -25 -549 0 -710 87 -553 283
-945 729 -1457 297 -341 761 -620 1227 -738 225 -57 336 -69 621 -69 297 0
420 15 656 79 509 140 973 445 1294 850 612 773 714 1829 260 2702 -92 179
-151 267 -317 473 -410 512 -881 814 -1472 945 -206 45 -575 66 -791 44z m436
-1250 c184 -56 322 -190 386 -374 l27 -80 106 -2 c82 -2 123 -9 181 -28 414
-139 549 -651 257 -974 -30 -33 -76 -75 -104 -92 -36 -24 -48 -37 -43 -48 113
-252 71 -505 -115 -692 -86 -86 -178 -139 -289 -165 -96 -23 -234 -15 -332 19
-75 27 -185 95 -229 141 l-24 25 -56 -50 c-105 -94 -251 -149 -396 -149 -283
0 -532 202 -591 480 -26 123 -10 249 50 391 5 11 -9 26 -49 54 -155 106 -255
299 -255 490 0 263 193 514 446 580 33 9 101 15 159 15 l101 0 13 51 c53 205
234 375 451 424 84 19 214 12 306 -16z"/>
<path d="M2063 3535 c-18 -8 -42 -29 -53 -47 -20 -32 -20 -46 -18 -496 l3
-464 37 -34 c35 -31 43 -34 103 -34 36 0 65 -3 65 -7 0 -5 -25 -88 -56 -186
-30 -98 -54 -182 -52 -187 2 -5 189 79 416 186 l413 194 215 0 c173 0 221 3
244 15 60 31 60 29 60 533 0 456 0 460 -22 487 -44 56 -35 55 -705 55 -508 -1
-624 -3 -650 -15z m535 -202 c5 -10 12 -43 15 -73 4 -30 9 -65 13 -77 5 -17
-5 -33 -41 -72 l-47 -50 25 -43 c33 -55 120 -143 175 -175 l43 -25 50 47 c39
36 55 46 72 41 12 -4 47 -9 77 -13 88 -9 90 -11 90 -107 0 -112 -2 -114 -127
-93 -237 38 -427 198 -508 426 -8 22 -19 77 -25 122 -15 106 -12 109 96 109
69 0 85 -3 92 -17z"/>
</g>
</svg>
