<?xml version="1.0" encoding="UTF-8" standalone="no"?>
<svg
   xmlns:dc="http://purl.org/dc/elements/1.1/"
   xmlns:cc="http://creativecommons.org/ns#"
   xmlns:rdf="http://www.w3.org/1999/02/22-rdf-syntax-ns#"
   xmlns:svg="http://www.w3.org/2000/svg"
   xmlns="http://www.w3.org/2000/svg"
   xmlns:xlink="http://www.w3.org/1999/xlink"
   xmlns:sodipodi="http://sodipodi.sourceforge.net/DTD/sodipodi-0.dtd"
   xmlns:inkscape="http://www.inkscape.org/namespaces/inkscape"
   inkscape:export-ydpi="326.17001"
   inkscape:export-xdpi="326.17001"
   inkscape:export-filename="/home/arpagon/sebastian.rojo@sapian.com.co/sapian.com.co/DiseñoDelServicio/Productos/Futuros/webhooks/Logo_circular_WebHooks_slack.png"
   viewBox="0 0 589.55634 547.52234"
   version="1.1"
   id="svg4"
   sodipodi:docname="Logo_circular_DoePhone.svg"
   width="589.55634"
   height="547.52234"
   inkscape:version="1.0.2 (e86c870879, 2021-01-15)">
  <metadata
     id="metadata10">
    <rdf:RDF>
      <cc:Work
         rdf:about="">
        <dc:format>image/svg+xml</dc:format>
        <dc:type
           rdf:resource="http://purl.org/dc/dcmitype/StillImage" />
        <dc:title />
      </cc:Work>
    </rdf:RDF>
  </metadata>
  <defs
     id="defs8">
    <linearGradient
       id="linearGradient5325"
       inkscape:collect="always">
      <stop
         id="stop5327"
         offset="0"
         style="stop-color:#000000;stop-opacity:1" />
      <stop
         id="stop5329"
         offset="1"
         style="stop-color:#000000;stop-opacity:0" />
    </linearGradient>
    <clipPath
       clipPathUnits="userSpaceOnUse"
       id="clipPath5165">
      <rect
         ry="33.779934"
         y="328.42154"
         x="173.20412"
         height="405.6806"
         width="406.41339"
         id="rect5167"
         style="opacity:1;fill:#e0e0e0;fill-opacity:1;stroke:none" />
    </clipPath>
    <clipPath
       clipPathUnits="userSpaceOnUse"
       id="clipPath5194">
      <rect
         ry="33.779934"
         y="166.34505"
         x="182.77554"
         height="405.6806"
         width="406.41339"
         id="rect5196"
         style="opacity:1;fill:#e0e0e0;fill-opacity:1;stroke:none" />
    </clipPath>
    <linearGradient
       inkscape:collect="always"
       xlink:href="#linearGradient5325"
       id="linearGradient5204"
       x1="341.43155"
       y1="322.08112"
       x2="555.58392"
       y2="542.29437"
       gradientUnits="userSpaceOnUse" />
    <linearGradient
       gradientUnits="userSpaceOnUse"
       y2="497"
       x2="682"
       y1="246"
       x1="440"
       id="linearGradient5331"
       xlink:href="#linearGradient5325"
       inkscape:collect="always" />
    <filter
       height="1.1181884"
       y="-0.059094191"
       width="1.1219673"
       x="-0.060983624"
       id="filter5545"
       style="color-interpolation-filters:sRGB"
       inkscape:collect="always">
      <feGaussianBlur
         id="feGaussianBlur5547"
         stdDeviation="7.3904545"
         inkscape:collect="always" />
    </filter>
    <filter
       height="1.2366008"
       y="-0.11830041"
       width="1.2434983"
       x="-0.12174914"
       id="filter5549"
       style="color-interpolation-filters:sRGB"
       inkscape:collect="always">
      <feGaussianBlur
         id="feGaussianBlur5551"
         stdDeviation="7.3093913"
         inkscape:collect="always" />
    </filter>
    <filter
       height="1.1345214"
       y="-0.06726069"
       width="1.1342788"
       x="-0.067139417"
       id="filter4487"
       style="color-interpolation-filters:sRGB"
       inkscape:collect="always">
      <feGaussianBlur
         id="feGaussianBlur4489"
         stdDeviation="11.369316"
         inkscape:collect="always" />
    </filter>
    <clipPath
       id="clipPath4164"
       clipPathUnits="userSpaceOnUse">
      <rect
         ry="177.38446"
         y="191.80089"
         x="208.27737"
         height="354.76892"
         width="355.40973"
         id="rect4166"
         style="opacity:1;fill:#e0e0e0;fill-opacity:1;stroke:none" />
    </clipPath>
    <clipPath
       id="clipPath4170"
       clipPathUnits="userSpaceOnUse">
      <rect
         ry="177.38446"
         y="191.80089"
         x="208.27737"
         height="354.76892"
         width="355.40973"
         id="rect4172"
         style="opacity:1;fill:#e0e0e0;fill-opacity:1;stroke:none" />
    </clipPath>
    <clipPath
       id="clipPath1233"
       clipPathUnits="userSpaceOnUse">
      <rect
         style="opacity:1;fill:#35855d;fill-opacity:1;stroke:none;stroke-width:0.25890878"
         id="rect1235"
         width="92.018707"
         height="91.852791"
         x="-158.93152"
         y="86.090752"
         ry="45.926395" />
    </clipPath>
    <clipPath
       clipPathUnits="userSpaceOnUse"
       id="clipPath7638">
      <rect
         ry="247.99091"
         y="19.034906"
         x="23.013636"
         height="495.98181"
         width="496.87766"
         id="rect7640"
         style="opacity:1;fill:#35855d;fill-opacity:1;stroke:none;stroke-width:1.39804173" />
    </clipPath>
    <clipPath
       id="clipPath5165-7"
       clipPathUnits="userSpaceOnUse">
      <rect
         style="opacity:1;fill:#e0e0e0;fill-opacity:1;stroke:none"
         id="rect5167-5"
         width="406.41339"
         height="405.6806"
         x="173.20412"
         y="328.42154"
         ry="33.779934" />
    </clipPath>
    <clipPath
       id="clipPath5194-3"
       clipPathUnits="userSpaceOnUse">
      <rect
         style="opacity:1;fill:#e0e0e0;fill-opacity:1;stroke:none"
         id="rect5196-5"
         width="406.41339"
         height="405.6806"
         x="182.77554"
         y="166.34505"
         ry="33.779934" />
    </clipPath>
    <clipPath
       clipPathUnits="userSpaceOnUse"
       id="clipPath5529">
      <rect
         style="opacity:1;fill:#e0e0e0;fill-opacity:1;stroke:none"
         id="rect5531"
         width="406.41339"
         height="405.6806"
         x="182.77554"
         y="166.34505"
         ry="33.779934" />
    </clipPath>
    <clipPath
       id="clipPath5073"
       clipPathUnits="userSpaceOnUse">
      <path
         style="fill:#f9f9f9"
         d="m 345.73343,647.7244 c -13.1557,-3.54715 -21.13735,-16.92726 -21.27739,-35.6685 -0.0675,-9.03192 0.88725,-14.13241 3.84211,-20.52563 4.05883,-8.78185 10.66,-14.3536 19.02522,-16.05835 3.82787,-0.78009 10.35381,-0.44113 12.08301,0.62757 0.57845,0.3575 0.83562,2.91448 0.83637,8.3156 l 10e-4,7.79936 -4.75187,-0.23231 c -5.47596,-0.26771 -7.70443,0.59905 -10.90127,4.24005 -5.13391,5.84721 -6.26871,19.89017 -2.24471,27.77787 1.55209,3.04235 5.51283,6.67935 7.93628,7.28759 1.57441,0.39516 5.87372,0.13899 8.49908,-0.5064 0.86204,-0.21191 1.05691,1.07523 1.2177,8.04266 l 0.19141,8.29495 -3.06009,0.77054 c -3.84177,0.96737 -7.38759,0.91603 -11.39692,-0.165 z m 60.27798,-1.91225 c -13.27142,-6.90753 -15.60777,-24.44153 -4.60782,-34.58093 1.68401,-1.55226 3.94994,-3.28155 5.0354,-3.84287 3.17303,-1.64083 9.09425,-2.47587 12.73169,-1.79546 4.23102,0.79143 5.70628,1.58585 9.2124,4.96082 1.5914,1.53187 3.03893,2.63975 3.21671,2.46196 0.17779,-0.17778 1.41942,-7.50612 2.75918,-16.28519 1.33976,-8.77907 2.60439,-16.23455 2.81031,-16.56772 0.45372,-0.73414 7.6105,-0.81648 8.05174,-0.0926 0.17204,0.28222 -0.25089,4.20775 -0.93984,8.7234 -0.68896,4.51563 -2.81474,18.67832 -4.72396,31.47263 -1.90922,12.79431 -3.62918,23.95512 -3.82212,24.8018 -0.31165,1.36755 -0.77137,1.53942 -4.11775,1.53942 -3.42902,0 -3.82772,-0.15988 -4.44457,-1.78235 -0.67374,-1.77204 -0.68847,-1.77523 -2.54877,-0.55104 -3.70907,2.44077 -5.84125,3.19161 -9.97883,3.51401 -3.7831,0.29478 -4.65429,0.0954 -8.63377,-1.97584 z m 16.10568,-5.97332 c 9.25652,-4.20422 11.4087,-17.78288 3.82938,-24.16046 -8.96889,-7.54682 -22.00875,-0.94024 -22.00875,11.15063 0,4.70273 0.81409,7.11845 3.29342,9.77288 3.99318,4.27518 9.8135,5.54081 14.88595,3.23695 z m 51.51216,7.10529 c -4.32358,-1.38698 -9.6528,-6.33327 -12.00793,-11.14513 -1.59641,-3.26164 -1.90162,-4.74338 -1.86066,-9.03306 0.0592,-6.19362 1.61226,-10.13759 5.76721,-14.64517 4.13869,-4.48996 9.16593,-6.76822 14.90937,-6.7567 5.56853,0.0112 8.6209,1.21427 12.75965,5.02923 1.72378,1.58893 3.29059,2.73252 3.4818,2.54131 0.19121,-0.19121 0.57696,-1.69867 0.85722,-3.34993 l 0.50958,-3.00227 3.6737,-0.21019 c 2.02053,-0.11561 3.94441,0.0606 4.27529,0.39141 0.51509,0.51508 -4.30757,36.45997 -5.23101,38.98852 -0.19934,0.54581 -1.70476,0.85523 -4.1609,0.85523 -3.27316,0 -3.90206,-0.20458 -4.2064,-1.36837 -0.44458,-1.70007 -0.23558,-1.71978 -4.30016,0.40554 -4.20872,2.20068 -10.02817,2.72345 -14.46676,1.29958 z m 12.74054,-6.84642 c 2.46721,-0.51145 6.53371,-4.34193 7.97308,-7.5103 1.38926,-3.05811 1.6587,-8.82243 0.54985,-11.76357 -0.98488,-2.6123 -4.60798,-6.32985 -7.29108,-7.48114 -2.79608,-1.19977 -7.12986,-1.20978 -9.96467,-0.023 -2.99201,1.25257 -7.08339,5.93639 -7.96789,9.12165 -2.27609,8.19672 2.09236,16.25168 9.77435,18.02289 2.05731,0.47434 3.14872,0.41659 6.92636,-0.36652 z m -230.72783,5.67724 c -1.06061,-1.2995 -21.21301,-67.09916 -20.85676,-68.09948 0.42879,-1.20403 14.77563,-1.20403 15.69771,0 0.67234,0.87795 9.06006,30.55052 10.64668,37.66398 0.48675,2.18224 1.16523,3.96802 1.50775,3.96838 0.34252,3.6e-4 3.03449,-9.31524 5.98217,-20.70133 2.94767,-11.3861 5.73597,-20.94124 6.19622,-21.23365 1.44324,-0.91694 14.61242,-0.65762 15.36849,0.30262 0.46674,0.59278 -2.21895,10.40872 -8.75143,31.98578 -5.18365,17.12179 -9.83633,32.36207 -10.33929,33.86729 l -0.91446,2.73675 -6.91023,0.19385 c -4.99283,0.14006 -7.10907,-0.0498 -7.62685,-0.68419 z m 43.93758,4.7e-4 c -0.18511,-0.48318 -0.25644,-16.11879 -0.1585,-34.7458 l 0.17807,-33.86729 7.52606,0 7.52606,0 0,34.55148 0,34.55148 -7.36755,0.19432 c -5.51174,0.14537 -7.45234,-0.027 -7.70414,-0.68419 z m 69.23655,0.37583 c -0.25087,-0.25086 -0.45613,-15.79316 -0.45613,-34.53844 l 0,-34.08231 1.53943,-0.38529 c 0.84668,-0.21191 4.31038,-0.29474 7.69711,-0.18408 l 6.15769,0.2012 0.17731,34.72253 0.17732,34.72252 -7.4183,0 c -4.08007,0 -7.62356,-0.20525 -7.87443,-0.45613 z m 74.80452,-1.50262 c 0,-1.98546 4.46399,-34.03769 5.13482,-36.8689 0.32797,-1.38418 0.77739,-1.53942 4.45684,-1.53942 3.44447,0 4.09069,0.18949 4.08325,1.19733 -0.017,2.31255 -5.34962,37.7459 -5.78711,38.45377 -0.24338,0.39378 -2.11769,0.71597 -4.16515,0.71597 -3.64054,0 -3.72265,-0.0432 -3.72265,-1.95875 z m 64.31364,0.38815 c 0,-1.53512 8.5303,-59.87771 9.29874,-63.59828 0.37236,-1.80284 0.56199,-1.88151 4.53509,-1.88151 l 4.14649,0 -0.39689,3.84537 c -0.96213,9.32219 -8.98571,61.57841 -9.57337,62.34979 -0.37893,0.49739 -2.19102,0.85523 -4.3308,0.85523 -3.38105,0 -3.67926,-0.1273 -3.67926,-1.5706 z m -53.80657,-51.77554 c -5.73243,-2.37093 -4.13068,-10.9675 2.0435,-10.9675 3.51441,0 5.5493,1.97904 5.5493,5.39701 0,4.314 -3.83252,7.12574 -7.5928,5.57049 z"
         id="path5075"
         inkscape:connector-curvature="0" />
    </clipPath>
    <clipPath
       id="clipPath5077"
       clipPathUnits="userSpaceOnUse">
      <path
         style="fill:#f9f9f9"
         d="m 307.67626,155.46714 c -19.2282,-5.18447 -30.89408,-24.74066 -31.09876,-52.13262 -0.0987,-13.200943 1.29679,-20.655755 5.61558,-30.000004 5.93233,-12.835441 15.58052,-20.97904 27.80702,-23.470681 5.59477,-1.14017 15.133,-0.64475 17.66037,0.917248 0.84546,0.522518 1.22134,4.259767 1.22243,12.153976 l 0.001,11.399446 -6.94527,-0.339542 c -8.00359,-0.391281 -11.2607,0.875564 -15.93316,6.197204 -7.50366,8.546208 -9.16226,29.071223 -3.28084,40.599783 2.26852,4.44666 8.05749,9.76245 11.59957,10.65145 2.30114,0.57756 8.58495,0.20314 12.42215,-0.74015 1.25994,-0.30972 1.54476,1.57154 1.77977,11.75505 l 0.27976,12.12379 -4.47258,1.12622 c -5.61509,1.41389 -10.79761,1.33885 -16.6576,-0.24117 z m 88.10154,-2.79492 c -19.39734,-10.09595 -22.81212,-35.72343 -6.73474,-50.54305 2.46133,-2.268759 5.77319,-4.796267 7.35968,-5.616685 4.63766,-2.398217 13.29204,-3.618701 18.60848,-2.624222 6.184,1.156744 8.34022,2.317858 13.46473,7.250667 2.32597,2.23897 4.44166,3.85823 4.7015,3.59837 0.25985,-0.25984 2.0746,-10.970846 4.03278,-23.802223 1.95818,-12.831378 3.80654,-23.728213 4.10751,-24.21517 0.66316,-1.07301 11.12341,-1.193357 11.76832,-0.135343 0.25146,0.412489 -0.36669,6.149994 -1.37365,12.750011 -1.00698,6.599988 -4.11399,27.299996 -6.90448,45.999995 -2.7905,18.7 -5.30437,35.0125 -5.58637,36.25 -0.4555,1.99879 -1.12742,2.25 -6.01845,2.25 -5.01181,0 -5.59454,-0.23368 -6.49612,-2.60506 -0.98473,-2.59 -1.00626,-2.59466 -3.72525,-0.8054 -5.42113,3.5674 -8.5375,4.66482 -14.58494,5.13603 -5.52933,0.43085 -6.80265,0.13944 -12.619,-2.88786 z m 23.53985,-8.73053 c 13.52922,-6.14483 16.67481,-25.99123 5.59698,-35.31262 -13.10882,-11.030334 -32.16771,-1.37424 -32.16771,16.29762 0,6.87345 1.18986,10.40424 4.81362,14.28392 5.83638,6.24855 14.34328,8.09838 21.75711,4.73108 z m 75.28952,10.38501 c -6.31929,-2.0272 -14.10841,-9.25663 -17.55063,-16.28958 -2.3333,-4.76718 -2.77939,-6.93287 -2.71952,-13.20261 0.0865,-9.05252 2.35646,-14.81697 8.42928,-21.40519 6.04906,-6.562474 13.39681,-9.89235 21.79135,-9.875512 8.13889,0.01637 12.60019,1.774762 18.64934,7.350662 2.51945,2.32236 4.80948,3.99381 5.08895,3.71434 0.27947,-0.27947 0.84328,-2.48275 1.25291,-4.896212 l 0.74479,-4.38808 5.36943,-0.307211 c 2.95319,-0.168974 5.7651,0.08857 6.24871,0.57208 0.75285,0.752834 -6.29589,53.289433 -7.64557,56.985123 -0.29136,0.79775 -2.49166,1.25 -6.08152,1.25 -4.78401,0 -5.7032,-0.29901 -6.14802,-2 -0.6498,-2.4848 -0.34432,-2.5136 -6.28506,0.59274 -6.15141,3.21648 -14.65705,3.98056 -21.14444,1.89945 z m 18.62142,-10.00664 c 3.60604,-0.74753 9.54958,-6.34611 11.65335,-10.97696 2.03052,-4.4697 2.42433,-12.89476 0.80365,-17.19349 -1.43949,-3.8181 -6.73496,-9.25163 -10.65655,-10.93434 -4.08671,-1.75357 -10.42091,-1.7682 -14.56423,-0.0336 -4.37309,1.83074 -10.353,8.67655 -11.64577,13.33208 -3.3267,11.98023 3.05817,23.75325 14.28607,26.34203 3.00693,0.69329 4.60212,0.60888 10.12348,-0.5357 z m -337.22888,8.29778 c -1.55017,-1.89933 -31.00466,-98.071284 -30.48397,-99.533339 0.62671,-1.759795 21.59587,-1.759795 22.94357,0 0.98268,1.283201 13.24207,44.652253 15.56105,55.049199 0.71143,3.18953 1.70309,5.7996 2.20371,5.80013 0.50062,5.3e-4 4.43517,-13.61504 8.74347,-30.256801 4.30827,-16.641779 8.38362,-30.607451 9.05631,-31.034834 2.10942,-1.340187 21.35733,-0.961169 22.46239,0.442306 0.68218,0.8664 -3.24319,15.213253 -12.79098,46.750011 -7.57635,25.024988 -14.37665,47.299988 -15.11177,49.499998 l -1.33657,4 -10.0999,0.28333 c -7.29746,0.20471 -10.39053,-0.0728 -11.14731,-1 z m 64.21861,6.9e-4 c -0.27055,-0.70621 -0.37481,-23.55902 -0.23166,-50.78403 l 0.26027,-49.499998 10.99999,0 10.99999,0 0,50.500008 0,50.5 -10.76831,0.28402 c -8.05589,0.21247 -10.89225,-0.0395 -11.26028,-1 z m 101.19527,0.5493 c -0.36667,-0.36665 -0.66668,-23.08308 -0.66668,-50.48094 l 0,-49.814275 2.25001,-0.563135 c 1.2375,-0.309725 6.3,-0.430789 11.25,-0.269049 l 9.00001,0.294071 0.25915,50.750008 0.25917,50.75 -10.8425,0 c -5.96337,0 -11.14249,-0.29999 -11.50916,-0.66668 z m 109.33334,-2.19621 c 0,-2.90192 6.52451,-49.74905 7.50498,-53.887114 0.47936,-2.0231 1.13623,-2.249997 6.51406,-2.249997 5.0344,0 5.97891,0.276956 5.96803,1.750003 -0.0248,3.379993 -7.81894,55.168928 -8.45837,56.203538 -0.35572,0.57555 -3.09518,1.04646 -6.08773,1.04646 -5.32096,0 -5.44097,-0.0631 -5.44097,-2.86289 z m 94,0.56732 c 0,-2.24371 12.46778,-87.516504 13.59092,-92.954442 0.54423,-2.635008 0.8214,-2.749991 6.62843,-2.749991 l 6.06046,0 -0.58009,5.620344 c -1.40624,13.625195 -13.1334,90.002219 -13.99232,91.129659 -0.55384,0.72698 -3.20237,1.25 -6.32984,1.25 -4.9417,0 -5.37756,-0.18606 -5.37756,-2.29557 z m -78.643,-75.674475 c -8.37845,-3.465321 -6.03735,-16.029959 2.98675,-16.029959 5.13662,0 8.11079,2.89254 8.11079,7.888201 0,6.305288 -5.60157,10.414892 -11.09754,8.141758 z"
         id="path5079"
         inkscape:connector-curvature="0" />
    </clipPath>
    <clipPath
       clipPathUnits="userSpaceOnUse"
       id="clipPath5503">
      <rect
         style="opacity:1;fill:#e0e0e0;fill-opacity:1;stroke:none;stroke-width:0.99999994"
         id="rect5505"
         width="406.41339"
         height="405.6806"
         x="173.20412"
         y="328.42154"
         ry="33.779934" />
    </clipPath>
    <clipPath
       id="clipPath6356"
       clipPathUnits="userSpaceOnUse">
      <rect
         style="opacity:1;fill:#e0e0e0;fill-opacity:1;stroke:none;stroke-width:0.99999994"
         id="rect6358"
         width="406.41339"
         height="405.6806"
         x="173.20412"
         y="328.42154"
         ry="33.779934" />
    </clipPath>
    <clipPath
       clipPathUnits="userSpaceOnUse"
       id="clipPath7105">
      <rect
         style="opacity:1;fill:#e0e0e0;fill-opacity:1;stroke:none;stroke-width:0.99999994"
         id="rect7107"
         width="406.41339"
         height="405.6806"
         x="173.20412"
         y="328.42154"
         ry="33.779934" />
    </clipPath>
    <filter
       inkscape:collect="always"
       style="color-interpolation-filters:sRGB"
       id="filter1989"
       x="-0.02209558"
       width="1.0441912"
       y="-0.022894169"
       height="1.0457883">
      <feGaussianBlur
         inkscape:collect="always"
         stdDeviation="2.3850009"
         id="feGaussianBlur1991" />
    </filter>
    <clipPath
       clipPathUnits="userSpaceOnUse"
       id="clipPath2886">
      <rect
         style="opacity:1;fill:#35855d;fill-opacity:1;stroke:none;stroke-width:1.39804"
         id="rect2888"
         width="496.87766"
         height="495.98181"
         x="23.013636"
         y="19.034906"
         ry="247.99091" />
    </clipPath>
  </defs>
  <sodipodi:namedview
     pagecolor="#ffffff"
     bordercolor="#666666"
     borderopacity="1"
     objecttolerance="10"
     gridtolerance="10"
     guidetolerance="10"
     inkscape:pageopacity="0"
     inkscape:pageshadow="2"
     inkscape:window-width="960"
     inkscape:window-height="1048"
     id="namedview6"
     showgrid="false"
     fit-margin-top="0"
     fit-margin-left="0"
     fit-margin-right="0"
     fit-margin-bottom="0"
     inkscape:zoom="0.23046875"
     inkscape:cx="470.96604"
     inkscape:cy="67.440114"
     inkscape:window-x="2880"
     inkscape:window-y="0"
     inkscape:window-maximized="0"
     inkscape:current-layer="svg4"
     inkscape:document-rotation="0" />
  <rect
     transform="matrix(1.1832547,0,0,1.1832547,-172.21907,-359.4444)"
     ry="202.8403"
     y="338.42154"
     x="181.20412"
     height="405.6806"
     width="406.41339"
     id="rect4413"
     style="opacity:1;fill:#000000;fill-opacity:1;stroke:none;filter:url(#filter4487)" />
  <rect
     style="opacity:1;fill:#35855d;fill-opacity:1;stroke:none;stroke-width:1.39804173"
     id="rect4147"
     width="496.87766"
     height="495.98181"
     x="23.013636"
     y="19.034906"
     ry="247.99091" />
  <path
     inkscape:connector-curvature="0"
     style="opacity:0.152;fill:url(#linearGradient5204);fill-opacity:1"
     d="m 370.77148,218.77344 c -28.99609,3.93224 -56.80027,16.62308 -78.43945,36.61718 -25.58478,23.21896 -42.70369,55.6541 -47.65625,90.06641 -4.932,32.97674 0.98669,67.57745 16.97461,96.76758 6.84667,12.65766 15.55387,24.27847 25.69922,34.42383 l 707.10547,707.10746 c 13.48452,13.4846 29.51102,24.3592 47.08982,31.5898 28.9139,12.0464 61.8346,14.0229 91.9199,5.3262 35.6337,-10.1739 66.911,-34.6614 86.043,-66.7227 14.3645,-23.6142 21.3925,-51.3482 21.4336,-79.0195 L 1095.5352,929.52344 c 0.1074,-1.21531 0.2153,-2.43031 0.3437,-3.64453 L 388.77344,218.77344 Z"
     transform="matrix(1.3980418,0,0,1.3980418,-271.56402,-246.64519)"
     id="path4426"
     clip-path="url(#clipPath4170)" />
  <path
     clip-path="none"
     transform="matrix(1.3934545,0,0,1.4406477,-256.44197,-489.46031)"
     style="opacity:0.3;fill:#000000;fill-opacity:1;filter:url(#filter5545)"
     inkscape:connector-curvature="0"
     id="path4912"
     d="m 361.19927,380.84921 h 18.00182 c -2.7126,25.6532 -0.5754,51.55606 -1.25355,77.33409 -13.17257,0.62416 -26.36568,3.93224 -37.6271,11.04772 -24.06408,14.41822 -38.2436,44.04527 -33.51709,72.11191 4.39771,31.72841 32.07859,57.65207 63.41738,60.71048 26.59173,3.3705 54.27261,-9.59134 69.39743,-31.91565 8.13781,-11.52626 11.77517,-25.674 12.18617,-39.71772 24.14628,-0.16645 48.31311,0.35369 72.45939,-0.52014 -0.0411,27.67133 -7.06921,55.40508 -21.43368,79.01933 -19.13207,32.0613 -50.40921,56.54938 -86.04296,66.72328 -30.08523,8.6967 -63.00637,6.72018 -91.92026,-5.32621 -30.80448,-12.67056 -56.84137,-36.53448 -72.78819,-66.01589 -15.98792,-29.19013 -21.90632,-63.7897 -16.97432,-96.76644 4.95256,-34.41231 22.07073,-66.84811 47.65551,-90.06706 21.63918,-19.9941 49.44336,-32.68546 78.43945,-36.6177 z" />
  <path
     d="m 246.79185,50.153908 h 25.16719 c -3.79223,35.864231 -0.8043,72.077502 -1.75244,108.116242 -18.41575,0.87264 -36.86033,5.49747 -52.60416,15.44522 -33.64267,20.15726 -53.46625,61.57711 -46.85837,100.81544 6.14817,44.35764 44.84715,80.60003 88.66017,84.87581 37.17628,4.7121 75.87534,-13.40909 97.02042,-44.61943 11.37696,-16.11421 16.4622,-35.89331 17.0368,-55.52702 33.75747,-0.23282 67.54377,0.49438 101.30124,-0.72721 -0.0577,38.68571 -9.88307,77.45866 -29.9652,110.47234 -26.74738,44.82302 -70.47415,79.05843 -120.29158,93.28197 -42.06052,12.15834 -88.08549,9.39507 -128.50834,-7.44629 -43.066,-17.71395 -79.4666,-51.07673 -101.760945,-92.29297 C 71.884843,321.739 63.610686,273.36735 70.505828,227.26447 77.4297,179.15462 101.36163,133.80804 137.1302,101.34694 167.38269,73.394399 206.25405,55.651316 246.79185,50.153908 Z"
     id="path5"
     inkscape:connector-curvature="0"
     style="opacity:1;fill:#4fa077;fill-opacity:1;stroke-width:1.39804173" />
  <path
     inkscape:connector-curvature="0"
     clip-path="url(#clipPath4164)"
     id="path5233"
     transform="matrix(1.3980418,0,0,1.3980418,-268.16682,-249.11075)"
     d="m 386.81641,214.06055 c -1.25112,39.8299 15.95857,78.82184 43.83398,106.69726 l 707.10551,707.10549 c 13.3321,13.3322 29.105,24.1223 46.4648,31.2441 16.9743,7.0531 35.306,10.9224 53.7188,10.2774 0.021,-25.9028 0,-51.7839 0,-77.66605 L 530.83203,284.61133 c -0.66199,-0.017 -1.32293,-0.0615 -1.98437,-0.0957 l -70.45508,-70.45507 h -71.57617 z"
     style="opacity:0.15;fill:url(#linearGradient5331);fill-opacity:1" />
  <path
     transform="matrix(1.3980418,0,0,1.3980418,-254.78556,-475.70048)"
     style="opacity:0.6;fill:#000000;fill-opacity:1;filter:url(#filter5549)"
     inkscape:connector-curvature="0"
     id="path5333"
     d="m 377.24586,382.13636 h 71.57574 c 0.8631,16.06186 6.4116,31.95727 16.89212,44.19091 13.54246,16.54038 34.46239,25.81964 55.54671,26.36058 0,25.88206 0.0205,51.76412 0,77.66698 -18.41282,0.64497 -36.74344,-3.22486 -53.71776,-10.27793 -53.65612,-22.01223 -92.14631,-79.06094 -90.29681,-137.94054 z" />
  <path
     d="m 272.61987,50.153908 h 100.06594 c 1.2066,22.455132 8.96363,44.67759 23.61581,61.780702 18.93294,23.12418 48.17988,36.09696 77.65659,36.85319 0,36.18424 0.0288,72.36843 0,108.5817 -25.74184,0.90171 -51.36886,-4.5085 -75.09962,-14.36898 C 323.84509,212.2265 270.03425,132.47004 272.61987,50.153908 Z"
     id="path7"
     inkscape:connector-curvature="0"
     style="opacity:1;fill:#4fa077;fill-opacity:1;stroke-width:1.39804173" />
  <path
     id="path3229"
     d="M 115.84925,86.062969 H 418.29181 V 388.50559 H 115.84925 Z"
     inkscape:connector-curvature="0"
     style="fill:none;stroke-width:1.39804173" />
  <path
     inkscape:connector-curvature="0"
     id="path4176"
     d=""
     style="fill:#000000;stroke-width:1.0666666" />
  <path
     inkscape:connector-curvature="0"
     id="path4174"
     d=""
     style="fill:#000000;stroke-width:1.0666666" />
  <path
     id="path1959"
     style="fill:#19171a;fill-opacity:1;stroke-width:12.0492;filter:url(#filter1989);opacity:0.28567963"
     d="m 277.45246,154.01577 c -29.40006,0 -54.22135,21.08498 -59.16153,49.03911 l -10.12072,-0.84269 c -33.13527,0 -60.24597,26.99017 -60.24597,60.24594 0,22.77299 12.6508,42.53403 31.20656,52.77586 -4.45819,8.55492 -7.10917,18.19363 -7.10917,28.55592 0,33.1353 27.11064,60.24595 60.24595,60.24595 17.9533,0 34.0996,-7.83116 45.18488,-20.36231 11.08527,12.53115 27.23158,20.36231 45.18488,20.36231 33.1353,0 60.24595,-27.11065 60.24595,-60.24595 0,-10.36229 -2.53049,-20.001 -7.10919,-28.55592 18.55576,-10.24183 31.20658,-30.00287 31.20658,-52.77586 0,-33.25577 -27.11066,-60.24594 -60.24598,-60.24594 l -10.12071,0.84269 c -4.94018,-27.95413 -29.76151,-49.03911 -59.16153,-49.03911 z m -60.24595,72.29548 h 120.4919 c 6.62705,0 12.04952,5.42077 12.04952,12.04783 v 84.345 c 0,6.62708 -5.42247,12.04952 -12.04952,12.04952 h -40.24455 l -83.25888,39.16013 12.28957,-39.16013 h -9.27804 c -6.62706,0 -12.04954,-5.42244 -12.04954,-12.04952 v -84.345 c 0,-6.62706 5.42248,-12.04783 12.04954,-12.04783 z m 32.54279,18.95894 c -2.05772,0 -3.74177,1.68405 -3.74177,3.74175 0,35.13073 28.47089,63.60163 63.60162,63.60163 2.05772,1e-5 3.74177,-1.68404 3.74177,-3.74176 v -13.05673 c 0,-2.05772 -1.68405,-3.74178 -3.74177,-3.74178 -4.6392,0 -9.16529,-0.74762 -13.35552,-2.13191 -1.30946,-0.44893 -2.80718,-0.11207 -3.81733,0.89809 l -8.23053,8.23054 c -10.58786,-5.42486 -19.26723,-14.06682 -24.65469,-24.65468 l 8.23055,-8.23055 c 1.04756,-1.04756 1.34655,-2.50783 0.93501,-3.81731 -1.38426,-4.19023 -2.13191,-8.67892 -2.13191,-13.35554 0,-2.0577 -1.68407,-3.74175 -3.74178,-3.74175 z" />
  <g
     id="g2822"
     style="opacity:0.23857453"
     clip-path="url(#clipPath2886)">
    <g
       style="fill:#000000;stroke-width:12.0492"
       id="g2819">
      <path
         d="M 271.452 142.016 C 242.052 142.016 217.231 163.101 212.291 191.055 L 495.134 473.898 C 500.074 445.943 524.895 424.858 554.295 424.858 Z"
         id="path2715" />
      <path
         d="M 212.291 191.055 L 202.17 190.212 L 485.013 473.055 L 495.134 473.898 Z"
         id="path2717" />
      <path
         d="M 202.17 190.212 C 169.035 190.212 141.924 217.202 141.924 250.458 L 424.767 533.301 C 424.767 500.045 451.878 473.055 485.013 473.055 Z"
         id="path2719" />
      <path
         d="M 141.924 250.458 C 141.924 267.106 148.685 282.145 159.572 293.031 L 442.414 575.874 C 431.528 564.988 424.767 549.949 424.767 533.301 Z"
         id="path2721" />
      <path
         d="M 159.572 293.031 C 163.577 297.036 168.14 300.479 173.131 303.234 L 455.974 586.077 C 450.983 583.322 446.419 579.879 442.414 575.874 Z"
         id="path2723" />
      <path
         d="M 173.131 303.234 C 168.673 311.789 166.022 321.428 166.022 331.79 L 448.864 614.633 C 448.864 604.27 451.515 594.632 455.974 586.077 Z"
         id="path2725" />
      <path
         d="M 166.022 331.79 C 166.022 348.358 172.799 363.419 183.719 374.339 L 466.562 657.181 C 455.642 646.262 448.864 631.2 448.864 614.633 Z"
         id="path2727" />
      <path
         d="M 183.719 374.339 C 194.638 385.258 209.7 392.036 226.268 392.036 L 509.11 674.879 C 492.543 674.879 477.481 668.101 466.562 657.181 Z"
         id="path2729" />
      <path
         d="M 226.268 392.036 C 244.221 392.036 260.367 384.205 271.452 371.674 L 554.295 654.516 C 543.21 667.047 527.064 674.879 509.11 674.879 Z"
         id="path2731" />
      <path
         d="M 271.452 371.674 C 272.274 372.602 273.123 373.505 273.999 374.38 L 556.841 657.223 C 555.966 656.348 555.117 655.445 554.295 654.516 Z"
         id="path2733" />
      <path
         d="M 273.999 374.38 C 284.94 385.322 300.014 392.036 316.637 392.036 L 599.48 674.879 C 582.857 674.879 567.783 668.165 556.841 657.223 Z"
         id="path2735" />
      <path
         d="M 316.637 392.036 C 349.773 392.036 376.883 364.925 376.883 331.79 L 659.726 614.633 C 659.726 647.768 632.615 674.879 599.48 674.879 Z"
         id="path2737" />
      <path
         d="M 376.883 331.79 C 376.883 321.428 374.353 311.789 369.774 303.234 L 652.617 586.077 C 657.196 594.632 659.726 604.27 659.726 614.633 Z"
         id="path2739" />
      <path
         d="M 369.774 303.234 C 388.33 292.992 400.981 273.231 400.981 250.458 L 683.823 533.301 C 683.823 556.074 671.173 575.835 652.617 586.077 Z"
         id="path2741" />
      <path
         d="M 400.981 250.458 C 400.981 233.845 394.215 218.796 383.313 207.894 L 666.156 490.737 C 677.058 501.639 683.823 516.688 683.823 533.301 Z"
         id="path2743" />
      <path
         d="M 383.313 207.894 C 372.391 196.972 357.317 190.212 340.735 190.212 L 623.577 473.055 C 640.16 473.055 655.234 479.815 666.156 490.737 Z"
         id="path2745" />
      <path
         d="M 340.735 190.212 L 330.614 191.055 L 613.457 473.898 L 623.577 473.055 Z"
         id="path2747" />
      <path
         d="M 330.614 191.055 C 328.47 178.923 322.582 168.085 314.199 159.703 L 597.042 442.546 C 605.424 450.928 611.313 461.766 613.457 473.898 Z"
         id="path2749" />
      <path
         d="M 314.199 159.703 C 303.267 148.771 288.093 142.016 271.452 142.016 L 554.295 424.858 C 570.936 424.858 586.11 431.613 597.042 442.546 Z"
         id="path2751" />
      <path
         d="M 271.452 142.016 L 271.452 142.016 L 554.295 424.858 L 554.295 424.858 Z"
         id="path2753" />
      <path
         d="M 211.207 214.311 L 331.698 214.311 L 614.541 497.154 L 494.049 497.154 Z"
         id="path2755" />
      <path
         d="M 331.698 214.311 C 335.012 214.311 338.025 215.667 340.209 217.851 L 623.052 500.694 C 620.868 498.51 617.855 497.154 614.541 497.154 Z"
         id="path2757" />
      <path
         d="M 340.209 217.851 C 342.393 220.034 343.748 223.046 343.748 226.359 L 626.591 509.202 C 626.591 505.889 625.235 502.877 623.052 500.694 Z"
         id="path2759" />
      <path
         d="M 343.748 226.359 L 343.748 310.704 L 626.591 593.547 L 626.591 509.202 Z"
         id="path2761" />
      <path
         d="M 343.748 310.704 C 343.748 317.331 338.325 322.754 331.698 322.754 L 614.541 605.596 C 621.168 605.596 626.591 600.174 626.591 593.547 Z"
         id="path2763" />
      <path
         d="M 331.698 322.754 L 291.454 322.754 L 574.297 605.596 L 614.541 605.596 Z"
         id="path2765" />
      <path
         d="M 291.454 322.754 L 208.195 361.914 L 491.038 644.756 L 574.297 605.596 Z"
         id="path2767" />
      <path
         d="M 208.195 361.914 L 220.485 322.754 L 503.327 605.596 L 491.038 644.756 Z"
         id="path2769" />
      <path
         d="M 220.485 322.754 L 211.207 322.754 L 494.049 605.596 L 503.327 605.596 Z"
         id="path2771" />
      <path
         d="M 211.207 322.754 C 207.893 322.754 204.881 321.398 202.697 319.214 L 485.539 602.057 C 487.723 604.241 490.736 605.596 494.049 605.596 Z"
         id="path2773" />
      <path
         d="M 202.697 319.214 C 200.513 317.03 199.157 314.018 199.157 310.704 L 482 593.547 C 482 596.86 483.355 599.873 485.539 602.057 Z"
         id="path2775" />
      <path
         d="M 199.157 310.704 L 199.157 226.359 L 482 509.202 L 482 593.547 Z"
         id="path2777" />
      <path
         d="M 199.157 226.359 C 199.157 219.732 204.579 214.311 211.207 214.311 L 494.049 497.154 C 487.422 497.154 482 502.575 482 509.202 Z"
         id="path2779" />
      <path
         d="M 211.207 214.311 L 271.452 142.016 L 554.295 424.858 L 494.049 497.154 Z"
         id="path2781" />
      <path
         d="M 243.749 233.27 C 241.692 233.27 240.008 234.954 240.008 237.012 L 522.85 519.855 C 522.85 517.797 524.534 516.113 526.592 516.113 Z"
         id="path2783" />
      <path
         d="M 240.008 237.012 C 240.008 254.577 247.125 270.478 258.634 281.987 L 541.477 564.829 C 529.968 553.32 522.85 537.42 522.85 519.855 Z"
         id="path2785" />
      <path
         d="M 258.634 281.987 C 270.143 293.496 286.044 300.614 303.609 300.614 L 586.452 583.456 C 568.886 583.456 552.986 576.339 541.477 564.829 Z"
         id="path2787" />
      <path
         d="M 303.609 300.614 C 305.667 300.614 307.351 298.93 307.351 296.872 L 590.194 579.715 C 590.194 581.772 588.51 583.456 586.452 583.456 Z"
         id="path2789" />
      <path
         d="M 307.351 296.872 L 307.351 283.815 L 590.194 566.658 L 590.194 579.715 Z"
         id="path2791" />
      <path
         d="M 307.351 283.815 C 307.351 282.786 306.93 281.851 306.252 281.173 L 589.094 564.015 C 589.773 564.693 590.194 565.629 590.194 566.658 Z"
         id="path2793" />
      <path
         d="M 306.252 281.173 C 305.573 280.494 304.638 280.073 303.609 280.073 L 586.452 562.916 C 587.481 562.916 588.416 563.337 589.094 564.015 Z"
         id="path2795" />
      <path
         d="M 303.609 280.073 C 298.97 280.073 294.444 279.326 290.254 277.941 L 573.096 560.784 C 577.287 562.168 581.813 562.916 586.452 562.916 Z"
         id="path2797" />
      <path
         d="M 290.254 277.941 C 288.944 277.492 287.446 277.829 286.436 278.839 L 569.279 561.682 C 570.289 560.672 571.787 560.335 573.096 560.784 Z"
         id="path2799" />
      <path
         d="M 286.436 278.839 L 278.206 287.07 L 561.048 569.913 L 569.279 561.682 Z"
         id="path2801" />
      <path
         d="M 278.206 287.07 C 272.902 284.353 268.078 280.828 263.906 276.656 L 546.748 559.499 C 550.92 563.671 555.745 567.195 561.048 569.913 Z"
         id="path2803" />
      <path
         d="M 263.906 276.656 C 259.749 272.499 256.24 267.7 253.551 262.415 L 536.394 545.258 C 539.083 550.542 542.592 555.342 546.748 559.499 Z"
         id="path2805" />
      <path
         d="M 253.551 262.415 L 261.782 254.185 L 544.624 537.028 L 536.394 545.258 Z"
         id="path2807" />
      <path
         d="M 261.782 254.185 C 262.829 253.137 263.128 251.677 262.717 250.367 L 545.559 533.21 C 545.971 534.52 545.672 535.98 544.624 537.028 Z"
         id="path2809" />
      <path
         d="M 262.717 250.367 C 261.332 246.177 260.585 241.689 260.585 237.012 L 543.427 519.855 C 543.427 524.531 544.175 529.02 545.559 533.21 Z"
         id="path2811" />
      <path
         d="M 260.585 237.012 C 260.585 235.983 260.164 235.048 259.485 234.369 L 542.328 517.212 C 543.006 517.89 543.427 518.826 543.427 519.855 Z"
         id="path2813" />
      <path
         d="M 259.485 234.369 C 258.807 233.691 257.872 233.27 256.843 233.27 L 539.686 516.113 C 540.715 516.113 541.65 516.534 542.328 517.212 Z"
         id="path2815" />
      <path
         d="M 256.843 233.27 L 271.452 142.016 L 554.295 424.858 L 539.686 516.113 Z"
         id="path2817" />
    </g>
    <path
       id="path1993"
       style="fill:#000000;stroke-width:12.0492;opacity:0.23375958"
       d="m 271.45246,142.01577 c -29.40006,0 -54.22135,21.08498 -59.16153,49.03911 l -10.12072,-0.84269 c -33.13527,0 -60.24597,26.99017 -60.24597,60.24594 0,22.77299 12.6508,42.53403 31.20656,52.77586 -4.45819,8.55492 -7.10917,18.19363 -7.10917,28.55592 0,33.1353 27.11064,60.24595 60.24595,60.24595 17.9533,0 34.0996,-7.83116 45.18488,-20.36231 11.08527,12.53115 27.23158,20.36231 45.18488,20.36231 33.1353,0 60.24595,-27.11065 60.24595,-60.24595 0,-10.36229 -2.53049,-20.001 -7.10919,-28.55592 18.55576,-10.24183 31.20658,-30.00287 31.20658,-52.77586 0,-33.25577 -27.11066,-60.24594 -60.24598,-60.24594 l -10.12071,0.84269 c -4.94018,-27.95413 -29.76151,-49.03911 -59.16153,-49.03911 z m -60.24595,72.29548 h 120.4919 c 6.62705,0 12.04952,5.42077 12.04952,12.04783 v 84.345 c 0,6.62708 -5.42247,12.04952 -12.04952,12.04952 h -40.24455 l -83.25888,39.16013 12.28957,-39.16013 h -9.27804 c -6.62706,0 -12.04954,-5.42244 -12.04954,-12.04952 v -84.345 c 0,-6.62706 5.42248,-12.04783 12.04954,-12.04783 z m 32.54279,18.95894 c -2.05772,0 -3.74177,1.68405 -3.74177,3.74175 0,35.13073 28.47089,63.60163 63.60162,63.60163 2.05772,1e-5 3.74177,-1.68404 3.74177,-3.74176 v -13.05673 c 0,-2.05772 -1.68405,-3.74178 -3.74177,-3.74178 -4.6392,0 -9.16529,-0.74762 -13.35552,-2.13191 -1.30946,-0.44893 -2.80718,-0.11207 -3.81733,0.89809 l -8.23053,8.23054 c -10.58786,-5.42486 -19.26723,-14.06682 -24.65469,-24.65468 l 8.23055,-8.23055 c 1.04756,-1.04756 1.34655,-2.50783 0.93501,-3.81731 -1.38426,-4.19023 -2.13191,-8.67892 -2.13191,-13.35554 0,-2.0577 -1.68407,-3.74175 -3.74178,-3.74175 z" />
  </g>
  <path
     id="path2"
     style="fill:#ffffff;stroke-width:12.0492"
     d="m 271.45246,142.01577 c -29.40006,0 -54.22135,21.08498 -59.16153,49.03911 l -10.12072,-0.84269 c -33.13527,0 -60.24597,26.99017 -60.24597,60.24594 0,22.77299 12.6508,42.53403 31.20656,52.77586 -4.45819,8.55492 -7.10917,18.19363 -7.10917,28.55592 0,33.1353 27.11064,60.24595 60.24595,60.24595 17.9533,0 34.0996,-7.83116 45.18488,-20.36231 11.08527,12.53115 27.23158,20.36231 45.18488,20.36231 33.1353,0 60.24595,-27.11065 60.24595,-60.24595 0,-10.36229 -2.53049,-20.001 -7.10919,-28.55592 18.55576,-10.24183 31.20658,-30.00287 31.20658,-52.77586 0,-33.25577 -27.11066,-60.24594 -60.24598,-60.24594 l -10.12071,0.84269 c -4.94018,-27.95413 -29.76151,-49.03911 -59.16153,-49.03911 z m -60.24595,72.29548 h 120.4919 c 6.62705,0 12.04952,5.42077 12.04952,12.04783 v 84.345 c 0,6.62708 -5.42247,12.04952 -12.04952,12.04952 h -40.24455 l -83.25888,39.16013 12.28957,-39.16013 h -9.27804 c -6.62706,0 -12.04954,-5.42244 -12.04954,-12.04952 v -84.345 c 0,-6.62706 5.42248,-12.04783 12.04954,-12.04783 z m 32.54279,18.95894 c -2.05772,0 -3.74177,1.68405 -3.74177,3.74175 0,35.13073 28.47089,63.60163 63.60162,63.60163 2.05772,1e-5 3.74177,-1.68404 3.74177,-3.74176 v -13.05673 c 0,-2.05772 -1.68405,-3.74178 -3.74177,-3.74178 -4.6392,0 -9.16529,-0.74762 -13.35552,-2.13191 -1.30946,-0.44893 -2.80718,-0.11207 -3.81733,0.89809 l -8.23053,8.23054 c -10.58786,-5.42486 -19.26723,-14.06682 -24.65469,-24.65468 l 8.23055,-8.23055 c 1.04756,-1.04756 1.34655,-2.50783 0.93501,-3.81731 -1.38426,-4.19023 -2.13191,-8.67892 -2.13191,-13.35554 0,-2.0577 -1.68407,-3.74175 -3.74178,-3.74175 z" />
</svg>
